<svg width="34" height="34" viewBox="0 0 34 34" fill="none" xmlns="http://www.w3.org/2000/svg">
<path d="M29.7497 16.7998H12.4521" stroke="black" stroke-width="2.1" stroke-miterlimit="10" stroke-linecap="round"/>
<path d="M6.34748 16.7998H3.84998" stroke="black" stroke-width="2.1" stroke-miterlimit="10" stroke-linecap="round"/>
<path d="M29.7504 26.0505H21.7029" stroke="black" stroke-width="2.1" stroke-miterlimit="10" stroke-linecap="round"/>
<path d="M15.5975 26.0505H3.84998" stroke="black" stroke-width="2.1" stroke-miterlimit="10" stroke-linecap="round"/>
<path d="M29.7494 7.54907H25.402" stroke="black" stroke-width="2.1" stroke-miterlimit="10" stroke-linecap="round"/>
<path d="M19.2974 7.54907H3.84998" stroke="black" stroke-width="2.1" stroke-miterlimit="10" stroke-linecap="round"/>
<path d="M22.35 10.6027C24.0359 10.6027 25.4025 9.23602 25.4025 7.55018C25.4025 5.86433 24.0359 4.49768 22.35 4.49768C20.6642 4.49768 19.2975 5.86433 19.2975 7.55018C19.2975 9.23602 20.6642 10.6027 22.35 10.6027Z" stroke="black" stroke-width="2.1" stroke-miterlimit="10" stroke-linecap="round"/>
<path d="M9.40015 19.8517C11.086 19.8517 12.4527 18.485 12.4527 16.7993C12.4527 15.1134 11.086 13.7467 9.40015 13.7467C7.71431 13.7467 6.34766 15.1134 6.34766 16.7993C6.34766 18.485 7.71431 19.8517 9.40015 19.8517Z" stroke="black" stroke-width="2.1" stroke-miterlimit="10" stroke-linecap="round"/>
<path d="M18.6492 29.1024C20.335 29.1024 21.7017 27.7357 21.7017 26.0499C21.7017 24.364 20.335 22.9974 18.6492 22.9974C16.9634 22.9974 15.5967 24.364 15.5967 26.0499C15.5967 27.7357 16.9634 29.1024 18.6492 29.1024Z" stroke="black" stroke-width="2.1" stroke-miterlimit="10" stroke-linecap="round"/>
</svg>
