<svg width="162" height="42" viewBox="0 0 162 42" fill="none" xmlns="http://www.w3.org/2000/svg">
<path d="M32.0568 38.9861V15.2129H33.3737V19.9847H33.425C33.6987 19.0269 34.1434 18.166 34.7591 17.4021C35.3748 16.6382 36.133 16.0339 37.0338 15.5892C37.9345 15.1445 38.9265 14.9222 40.0097 14.9222C41.492 14.9222 42.7975 15.3041 43.9263 16.0681C45.0551 16.832 45.9331 17.9038 46.5602 19.2834C47.1987 20.6631 47.5179 22.2651 47.5179 24.0894V24.1236C47.5179 25.9593 47.1987 27.567 46.5602 28.9466C45.9331 30.3149 45.0551 31.381 43.9263 32.1449C42.8089 32.9089 41.5034 33.2908 40.0097 33.2908C38.9265 33.2908 37.9345 33.0742 37.0338 32.6409C36.133 32.1962 35.3691 31.5976 34.742 30.8451C34.1263 30.0811 33.6873 29.226 33.425 28.2796H33.3737V38.9861H32.0568ZM39.8387 32.0936C41.1043 32.0936 42.216 31.7629 43.1738 31.1016C44.1315 30.4289 44.8727 29.4939 45.3972 28.2967C45.9331 27.0995 46.201 25.7085 46.201 24.1236V24.0894C46.201 22.4931 45.9331 21.1021 45.3972 19.9162C44.8613 18.719 44.1144 17.7898 43.1567 17.1284C42.2103 16.4557 41.1043 16.1194 39.8387 16.1194C38.5845 16.1194 37.4671 16.4557 36.4865 17.1284C35.5059 17.8012 34.742 18.7361 34.1947 19.9333C33.6474 21.1306 33.3737 22.5159 33.3737 24.0894V24.1065C33.3737 25.6914 33.6474 27.0824 34.1947 28.2796C34.7534 29.4768 35.5173 30.4118 36.4865 31.0845C37.4557 31.7572 38.5731 32.0936 39.8387 32.0936ZM56.1208 33.2908C54.9692 33.2908 53.9487 33.0799 53.0593 32.658C52.1814 32.2247 51.4915 31.6261 50.9899 30.8622C50.4882 30.0983 50.2373 29.2146 50.2373 28.2112V28.1941C50.2373 27.1793 50.4768 26.3128 50.9557 25.5945C51.4459 24.8761 52.1586 24.306 53.0935 23.8841C54.0285 23.4623 55.1744 23.2057 56.5312 23.1145L63.3212 22.6185V23.696L56.7194 24.192C55.0661 24.3174 53.7948 24.7222 52.9054 25.4063C52.016 26.079 51.5714 27.0083 51.5714 28.1941V28.2112C51.5714 29.3514 52.016 30.2864 52.9054 31.0161C53.7948 31.7458 54.9293 32.1107 56.3089 32.1107C57.4833 32.1107 58.5494 31.8599 59.5072 31.3582C60.4649 30.8451 61.2289 30.1553 61.799 29.2887C62.3805 28.4222 62.6712 27.4587 62.6712 26.3983V21.0792C62.6712 19.5286 62.2266 18.3143 61.3372 17.4363C60.4478 16.5583 59.2164 16.1194 57.6429 16.1194C56.1379 16.1194 54.9065 16.4671 53.9487 17.1627C52.9909 17.8582 52.398 18.8559 52.17 20.1557L52.1358 20.3438H50.8701L50.9043 20.1386C51.0526 19.044 51.4174 18.109 51.9989 17.3337C52.5804 16.5583 53.3501 15.9654 54.3079 15.555C55.277 15.1331 56.3887 14.9222 57.6429 14.9222C58.9428 14.9222 60.0659 15.1673 61.0122 15.6576C61.9586 16.1479 62.6883 16.8491 63.2014 17.7613C63.7145 18.662 63.9711 19.7338 63.9711 20.9766V33.0001H62.6712V29.2545H62.6199C62.3235 30.0412 61.8503 30.7425 61.2004 31.3582C60.5619 31.9625 59.8036 32.4357 58.9257 32.7777C58.0477 33.1198 57.1127 33.2908 56.1208 33.2908ZM69.4611 33.0001H68.1442V15.2129H69.6835L77.4312 31.3069H77.5167L85.2302 15.2129H86.7181V33.0001H85.4012V17.6586H85.3328L77.9614 32.8632H76.9181L69.5296 17.6586H69.4611V33.0001ZM90.9939 33.0001V15.2129H104.574V33.0001H103.257V16.3588H92.3108V33.0001H90.9939ZM112.185 25.5602C112.093 26.9627 111.917 28.2397 111.654 29.3913C111.392 30.5429 110.982 31.4608 110.423 32.1449C109.864 32.829 109.083 33.1711 108.08 33.1711C107.897 33.1711 107.715 33.154 107.533 33.1198C107.35 33.097 107.196 33.0628 107.071 33.0172V31.8029C107.185 31.8371 107.322 31.8713 107.481 31.9055C107.641 31.9283 107.812 31.9397 107.994 31.9397C108.667 31.9397 109.203 31.6603 109.602 31.1016C110.001 30.5315 110.303 29.7619 110.508 28.7927C110.714 27.8121 110.856 26.7061 110.936 25.4747L111.637 15.2129H122.891V33.0001H121.574V16.3588H112.834L112.185 25.5602ZM127.184 33.0001V15.2129H128.501V30.9306H129.219L128.193 31.4779L139.806 15.2129H141.123V33.0001H139.806V17.2824H139.088L140.114 16.7522L128.484 33.0001H127.184ZM157.833 33.0001V24.363H146.733V33.0001H145.416V15.2129H146.733V23.2171H157.833V15.2129H159.149V33.0001H157.833Z" fill="black"/>
<path d="M9.48649 16.055C16.813 16.0552 15.9387 14.7077 18.8065 13.3606C21.6744 12.0136 21.7783 11.6766 29.9189 11.6766" stroke="#4774A3" stroke-width="1.45946"/>
<path d="M9.34083 20.1412H4.67056" stroke="#4774A3" stroke-width="1.45946"/>
<path d="M7.00555 27.1471H2.33528" stroke="#4774A3" stroke-width="1.45946"/>
<path d="M18.2434 36.4878L19.7405 12.9358" stroke="#4774A3" stroke-width="1.45946"/>
<path d="M4.67027 34.1522H0" stroke="#4774A3" stroke-width="1.45946"/>
</svg>
