<svg width="22" height="22" viewBox="0 0 22 22" fill="none" xmlns="http://www.w3.org/2000/svg">
<path d="M19.9239 5.56238C20.4526 5.0338 20.7497 4.31685 20.7498 3.56923C20.7499 2.82162 20.453 2.10459 19.9244 1.57588C19.3959 1.04717 18.6789 0.750094 17.9313 0.75C17.1837 0.749906 16.4666 1.0468 15.9379 1.57538L2.59193 14.9244C2.35975 15.1559 2.18805 15.4409 2.09193 15.7544L0.770934 20.1064C0.74509 20.1929 0.743138 20.2847 0.765286 20.3722C0.787433 20.4597 0.832855 20.5396 0.896731 20.6034C0.960607 20.6672 1.04055 20.7124 1.12809 20.7345C1.21563 20.7565 1.30749 20.7544 1.39393 20.7284L5.74693 19.4084C6.0601 19.3131 6.34511 19.1425 6.57693 18.9114L19.9239 5.56238Z" stroke="black" stroke-width="1.5" stroke-linecap="round" stroke-linejoin="round"/>
</svg>
