<svg width="20" height="20" viewBox="0 0 20 20" fill="none" xmlns="http://www.w3.org/2000/svg">
<path d="M19.741 18.5719L14.9337 13.7625C16.3033 12.0902 16.9777 9.95498 16.8174 7.79894C16.657 5.64291 15.6742 3.63108 14.0724 2.17984C12.4705 0.728606 10.3723 -0.0509269 8.21188 0.00258327C6.05148 0.0560935 3.99435 0.93855 2.46625 2.46731C0.938145 3.99607 0.0560693 6.05409 0.00258216 8.21542C-0.0509049 10.3768 0.728291 12.4759 2.1789 14.0785C3.62951 15.681 5.64047 16.6642 7.79558 16.8246C9.95068 16.985 12.0849 16.3103 13.7566 14.9402L18.5639 19.7409C18.6405 19.8215 18.7324 19.8859 18.8342 19.9304C18.936 19.9749 19.0457 19.9985 19.1568 19.9999C19.268 20.0013 19.3782 19.9805 19.4811 19.9386C19.5841 19.8967 19.6776 19.8346 19.7561 19.756C19.8347 19.6774 19.8968 19.5839 19.9386 19.4809C19.9805 19.378 20.0013 19.2676 19.9999 19.1565C19.9985 19.0453 19.9749 18.9356 19.9304 18.8337C19.886 18.7318 19.8216 18.6399 19.741 18.5633V18.5719ZM8.41644 15.171C7.08185 15.17 5.77751 14.7733 4.6683 14.0308C3.55909 13.2884 2.69481 12.2336 2.18473 10.9998C1.67466 9.76599 1.54168 8.4086 1.80261 7.09921C2.06355 5.78982 2.70668 4.58722 3.6507 3.64345C4.59472 2.69968 5.79725 2.05711 7.10625 1.79698C8.41526 1.53684 9.77197 1.67083 11.0049 2.18198C12.2378 2.69314 13.2915 3.55853 14.0329 4.66873C14.7742 5.77894 15.1699 7.08413 15.1699 8.41928C15.1699 9.30633 14.9952 10.1847 14.6558 11.0041C14.3163 11.8236 13.8188 12.5681 13.1916 13.1951C12.5644 13.8221 11.8199 14.3194 11.0005 14.6584C10.1812 14.9974 9.30309 15.1716 8.41644 15.171Z" fill="#393939"/>
</svg>
