<svg width="14" height="14" viewBox="0 0 14 14" fill="none" xmlns="http://www.w3.org/2000/svg">
<path d="M13.5071 6.99964C13.7233 6.74786 13.8748 6.44713 13.9485 6.12354C14.0222 5.79994 14.0158 5.46326 13.9299 5.14269C13.844 4.82213 13.6812 4.52737 13.4555 4.28397C13.2299 4.04058 12.9483 3.85591 12.6352 3.74598C12.6966 3.41981 12.6774 3.0836 12.5794 2.76651C12.4814 2.44942 12.3075 2.16104 12.0728 1.92637C11.8381 1.6917 11.5497 1.51785 11.2326 1.41989C10.9155 1.32192 10.5793 1.30281 10.2531 1.36421C10.1433 1.051 9.95865 0.769329 9.71525 0.543663C9.47186 0.317997 9.17706 0.155153 8.85645 0.0692685C8.53584 -0.0166162 8.19911 -0.0229451 7.8755 0.0508313C7.55189 0.124608 7.25117 0.276259 6.99947 0.49262C6.74769 0.276408 6.44696 0.124893 6.12336 0.0512188C5.79977 -0.0224557 5.46308 -0.0160644 5.14252 0.0698379C4.82196 0.15574 4.52719 0.318559 4.2838 0.54417C4.04041 0.769781 3.85574 1.05137 3.74581 1.36451C3.41966 1.30321 3.08348 1.32241 2.76644 1.42044C2.44939 1.51847 2.16105 1.69237 1.92642 1.92706C1.69179 2.16174 1.51797 2.45013 1.42002 2.7672C1.32207 3.08427 1.30296 3.42045 1.36434 3.74658C1.0512 3.85651 0.769608 4.04119 0.543997 4.28458C0.318386 4.52797 0.155566 4.82274 0.0696637 5.1433C-0.0162386 5.46387 -0.0226308 5.80055 0.0510436 6.12414C0.124718 6.44774 0.276236 6.74847 0.492447 7.00025C0.27617 7.25202 0.124606 7.55277 0.0509103 7.8764C-0.0227851 8.20003 -0.0163874 8.53675 0.0695526 8.85734C0.155492 9.17794 0.318375 9.47271 0.544064 9.71609C0.769752 9.95946 1.05143 10.1441 1.36464 10.2539C1.30321 10.58 1.3223 10.9163 1.42026 11.2333C1.51822 11.5504 1.69209 11.8388 1.92678 12.0735C2.16146 12.3081 2.44987 12.482 2.76697 12.5799C3.08407 12.6778 3.42028 12.6969 3.74641 12.6354C3.85634 12.9485 4.04101 13.2301 4.28441 13.4557C4.5278 13.6813 4.82256 13.8441 5.14313 13.93C5.46369 14.016 5.80037 14.0223 6.12397 13.9487C6.44756 13.875 6.7483 13.7235 7.00008 13.5073C7.25185 13.7235 7.5526 13.8751 7.87623 13.9488C8.19986 14.0225 8.53658 14.0161 8.85717 13.9302C9.17776 13.8442 9.47254 13.6813 9.71591 13.4557C9.95929 13.23 10.1439 12.9483 10.2537 12.6351C10.5799 12.6965 10.9161 12.6774 11.2332 12.5794C11.5503 12.4815 11.8387 12.3076 12.0734 12.0729C12.308 11.8383 12.4819 11.5499 12.5799 11.2328C12.6778 10.9157 12.6969 10.5795 12.6355 10.2533C12.9487 10.1434 13.2303 9.95873 13.4559 9.71533C13.6815 9.47193 13.8443 9.17714 13.9302 8.85656C14.0161 8.53597 14.0224 8.19927 13.9487 7.87568C13.875 7.55208 13.7234 7.25137 13.5071 6.99964Z" fill="#0071E8"/>
<path d="M9.71576 5.31122L6.01947 9.24091L4.22552 7.44794L4.31244 7.362L5.65228 8.70087L6.01654 9.06512L6.37006 8.69012L9.62689 5.22821L9.71576 5.31122Z" fill="white" stroke="white"/>
</svg>
